<?xml version="1.0" standalone="no"?>
<!DOCTYPE svg PUBLIC "-//W3C//DTD SVG 20010904//EN"
 "http://www.w3.org/TR/2001/REC-SVG-20010904/DTD/svg10.dtd">
<svg version="1.0" xmlns="http://www.w3.org/2000/svg"
 width="1080.000000pt" height="1080.000000pt" viewBox="0 0 1080.000000 1080.000000"
 preserveAspectRatio="xMidYMid meet">
<metadata>
Created by potrace 1.14, written by Peter Selinger 2001-2017
</metadata>
<g transform="translate(0.000000,1080.000000) scale(0.100000,-0.100000)"
fill="#000000" stroke="none">
<path d="M5015 9899 c-44 -4 -102 -10 -130 -13 -215 -22 -583 -98 -790 -163
-587 -185 -1051 -431 -1520 -803 -550 -437 -1013 -1037 -1300 -1685 -32 -71
-71 -166 -87 -210 -16 -44 -33 -89 -37 -100 -18 -40 -70 -203 -105 -330 -68
-245 -119 -529 -143 -799 -10 -107 -10 -689 0 -791 14 -148 18 -180 38 -305
92 -595 310 -1182 623 -1678 39 -62 80 -127 91 -145 35 -57 222 -303 287 -379
35 -40 97 -113 138 -163 95 -113 335 -359 437 -447 43 -36 87 -75 98 -85 20
-19 233 -181 311 -236 56 -40 218 -142 314 -198 186 -108 319 -173 570 -276
254 -105 677 -218 960 -257 19 -3 67 -10 105 -15 240 -34 826 -37 1050 -5 17
2 46 6 65 8 30 4 124 18 195 30 11 2 40 7 65 11 43 7 57 10 98 19 441 101 826
247 1215 463 107 59 416 259 472 305 11 9 56 45 100 79 134 106 242 204 423
387 146 147 173 179 170 201 -3 26 1 32 72 111 17 19 71 85 120 145 552 685
901 1548 977 2420 10 117 10 694 0 810 -7 82 -40 325 -52 385 -3 14 -10 52
-16 85 -21 118 -81 350 -131 504 -316 980 -944 1811 -1798 2378 -183 122 -201
132 -315 193 -44 23 -102 55 -130 70 -82 46 -329 154 -490 214 -208 77 -321
111 -620 182 -92 22 -363 62 -525 79 -140 14 -680 17 -805 4z"/>
</g>
</svg>
